<svg xmlns="http://www.w3.org/2000/svg" viewBox="0 0 98.9 85"><g opacity=".8"><path d="M49.5 33.9c-.1 0-.1 0 0 0-4.8-.1-8.7 3.7-8.8 8.5 0 4.6 3.6 8.4 8.2 8.5 4.7.2 8.7-3.5 8.8-8.2s-3.5-8.7-8.2-8.8z"/><path d="M93.8 33.9c-3.8-2.8-8-5-12.5-6.4-1-.3-2.1-.7-3.2-1 .2-.7.4-1.4.5-2.1C81.1 13 79.3 4 74.1 1.1 71.5-.4 68-.4 64 1.1c-4.4 1.7-8.5 4.2-12 7.3-.8.7-1.7 1.4-2.5 2.2-.6-.5-1.1-1-1.7-1.5-9.1-7.8-18-10.8-23.3-7.9-2.6 1.4-4.3 4.4-5.1 8.5-.6 4.5-.5 9.2.6 13.6.2 1 .5 2.1.7 3.2-1.3.3-2.5.7-3.7 1.1C6.4 31.2 0 36.8 0 42.4c0 3 1.8 6 5.2 8.8 3.9 3 8.2 5.3 12.9 6.7.9.3 1.8.6 2.7.8-.3 1.2-.6 2.3-.8 3.4-2.1 10.8-.4 18.9 4.7 21.8 1.5.8 3.1 1.2 4.7 1.1 2-.1 3.9-.4 5.7-1.1 4.6-1.7 8.8-4.2 12.5-7.5l2.1-1.8 2.7 2.4c6.3 5.3 12.4 8.1 17.2 8.1 1.6 0 3.2-.4 4.6-1.1 2.6-1.5 4.5-4.5 5.3-8.7.7-4.7.6-9.5-.5-14.1-.2-.8-.4-1.7-.6-2.5.7-.2 1.3-.4 1.9-.6C91.8 54.4 99 48.5 99 42.6c-.1-3.1-1.8-6-5.2-8.7zm-28.4-29c2.8-1 5.1-1.2 6.6-.3 1.5.8 2.7 3 3.2 6 .6 4.3.3 8.7-.7 13-.1.6-.3 1.2-.5 1.9-4.1-.9-8.6-1.6-13.2-2-2.7-3.7-5.5-7.1-8.3-10.1.8-.7 1.5-1.4 2.3-2 3.1-2.7 6.7-5 10.6-6.5zm-2.2 45.3c-1.6 2.6-3.1 5.1-4.7 7.4-2.9.2-6 .3-9.1.3-3.1 0-6.1-.1-8.9-.3-1.7-2.4-3.3-4.9-4.8-7.4-1.5-2.6-2.9-5.1-4.2-7.7 1.3-2.6 2.7-5.2 4.2-7.7 1.5-2.6 3.1-5 4.8-7.4 3-.2 6-.3 9-.3 3.1 0 6.1.1 9 .3 1.6 2.3 3.2 4.8 4.8 7.4 1.6 2.6 3 5.1 4.2 7.6-1.3 2.6-2.7 5.2-4.3 7.8zm6.6-3.1c1.3 2.9 2.5 5.7 3.3 8.4-2.9.6-6 1.1-9.2 1.5l3-4.8c1-1.7 2-3.4 2.9-5.1zM49.6 68.7c-2-2.1-4-4.4-5.9-6.9 1.9.1 3.8.1 5.8.1s4 0 6-.1c-2 2.6-4 4.9-5.9 6.9zM35.1 57.2c-3.2-.3-6.3-.8-9.1-1.4.9-2.7 2-5.6 3.2-8.4.9 1.7 1.8 3.3 2.8 4.9 1 1.6 2 3.3 3.1 4.9zM32 32.8c-1 1.6-1.9 3.3-2.8 4.9-1.2-2.8-2.3-5.6-3.1-8.2 2.8-.6 5.8-1.1 8.9-1.5-1 1.5-2 3.1-3 4.8zm17.5-16.4c1.9 2 3.9 4.3 5.8 6.8-1.9-.2-3.9-.2-5.8-.2-2 0-3.9 0-5.8.1 1.8-2.4 3.8-4.7 5.8-6.7zm17.4 16.3l-3-4.8c3.2.4 6.2.9 9 1.5-.9 2.6-1.9 5.4-3.2 8.2-.9-1.5-1.8-3.2-2.8-4.9zM24.3 22.6c-.9-4-1.1-8.1-.5-12.2.5-2.9 1.5-4.8 3-5.7 1.5-.9 4-.7 7 .4 4.2 1.7 8 4.1 11.3 7.1.5.4 1 .9 1.5 1.3-2.9 3-5.7 6.4-8.4 10-4.6.4-9.1 1.1-13.2 2-.3-1-.5-2-.7-2.9zM19.5 54c-4.2-1.3-8.1-3.3-11.5-5.9-2.4-2-3.7-4-3.7-5.7 0-4.2 7.2-8.5 14.3-10.9 1.1-.4 2.2-.7 3.4-1 1.2 3.9 2.9 8 4.8 12.1-2 4.2-3.6 8.3-4.9 12.2-.8-.3-1.7-.5-2.4-.8zm9.9 26.9c-.9 0-1.8-.2-2.6-.6-3.8-2.1-4.1-10.3-2.7-17.5.2-1 .4-2 .7-3.1 4 .9 8.5 1.5 13.3 1.9 2.7 3.7 5.6 7.1 8.5 10.1-.6.6-1.3 1.1-1.9 1.7-6.3 5.3-11.8 7.5-15.3 7.5zm45.4-19.1c2.2 10.5.1 17-2.8 18.5-3.8 2.1-11.3-1.7-17-6.5-.8-.7-1.7-1.4-2.5-2.2 2.8-2.9 5.5-6.3 8.3-10.2 4.8-.4 9.3-1.1 13.4-2 .3.9.5 1.7.6 2.4zm4.1-7.8c-.6.2-1.1.3-1.7.5-1.2-3.8-2.9-7.9-5-12.1 2-4.1 3.6-8.2 4.8-11.9 1 .3 2 .6 2.9.9 4 1.2 7.8 3.1 11.2 5.6 2.3 1.9 3.6 3.8 3.6 5.4 0 3.2-5 8.1-15.8 11.6z"/></g></svg>