<?xml version="1.0" encoding="utf-8"?>
<!-- Generator: Adobe Illustrator 20.0.0, SVG Export Plug-In . SVG Version: 6.00 Build 0)  -->
<svg version="1.1" id="Layer_1" xmlns="http://www.w3.org/2000/svg" xmlns:xlink="http://www.w3.org/1999/xlink" x="0px" y="0px"
	 viewBox="0 0 98.9 85" style="enable-background:new 0 0 98.9 85;" xml:space="preserve">
<style type="text/css">
	.st0{opacity:0.8;}
</style>
<g class="st0">
	<path d="M49.5,33.9C49.4,33.9,49.4,33.9,49.5,33.9c-4.8-0.1-8.7,3.7-8.8,8.5c0,4.6,3.6,8.4,8.2,8.5c4.7,0.2,8.7-3.5,8.8-8.2
		S54.2,34,49.5,33.9z"/>
	<path d="M93.8,33.9c-3.8-2.8-8-5-12.5-6.4c-1-0.3-2.1-0.7-3.2-1c0.2-0.7,0.4-1.4,0.5-2.1C81.1,13,79.3,4,74.1,1.1
		C71.5-0.4,68-0.4,64,1.1c-4.4,1.7-8.5,4.2-12,7.3c-0.8,0.7-1.7,1.4-2.5,2.2c-0.6-0.5-1.1-1-1.7-1.5c-9.1-7.8-18-10.8-23.3-7.9
		c-2.6,1.4-4.3,4.4-5.1,8.5c-0.6,4.5-0.5,9.2,0.6,13.6c0.2,1,0.5,2.1,0.7,3.2c-1.3,0.3-2.5,0.7-3.7,1.1C6.4,31.2,0,36.8,0,42.4
		c0,3,1.8,6,5.2,8.8c3.9,3,8.2,5.3,12.9,6.7c0.9,0.3,1.8,0.6,2.7,0.8c-0.3,1.2-0.6,2.3-0.8,3.4c-2.1,10.8-0.4,18.9,4.7,21.8
		c1.5,0.8,3.1,1.2,4.7,1.1c2-0.1,3.9-0.4,5.7-1.1c4.6-1.7,8.8-4.2,12.5-7.5c0.7-0.6,1.4-1.2,2.1-1.8c0.9,0.8,1.8,1.6,2.7,2.4
		c6.3,5.3,12.4,8.1,17.2,8.1c1.6,0,3.2-0.4,4.6-1.1c2.6-1.5,4.5-4.5,5.3-8.7c0.7-4.7,0.6-9.5-0.5-14.1c-0.2-0.8-0.4-1.7-0.6-2.5
		c0.7-0.2,1.3-0.4,1.9-0.6c11.5-3.7,18.7-9.6,18.7-15.5C98.9,39.5,97.2,36.6,93.8,33.9z M65.4,4.9c2.8-1,5.1-1.2,6.6-0.3
		c1.5,0.8,2.7,3,3.2,6c0.6,4.3,0.3,8.7-0.7,13c-0.1,0.6-0.3,1.2-0.5,1.9c-4.1-0.9-8.6-1.6-13.2-2c-2.7-3.7-5.5-7.1-8.3-10.1
		c0.8-0.7,1.5-1.4,2.3-2C57.9,8.7,61.5,6.4,65.4,4.9z M63.2,50.2c-1.6,2.6-3.1,5.1-4.7,7.4c-2.9,0.2-6,0.3-9.1,0.3
		c-3.1,0-6.1-0.1-8.9-0.3c-1.7-2.4-3.3-4.9-4.8-7.4c-1.5-2.6-2.9-5.1-4.2-7.7c1.3-2.6,2.7-5.2,4.2-7.7l0,0c1.5-2.6,3.1-5,4.8-7.4
		c3-0.2,6-0.3,9-0.3v0c3.1,0,6.1,0.1,9,0.3c1.6,2.3,3.2,4.8,4.8,7.4c1.6,2.6,3,5.1,4.2,7.6C66.2,45,64.8,47.6,63.2,50.2z M69.8,47.1
		c1.3,2.9,2.5,5.7,3.3,8.4c-2.9,0.6-6,1.1-9.2,1.5c1-1.6,2-3.2,3-4.8C67.9,50.5,68.9,48.8,69.8,47.1z M49.6,68.7
		c-2-2.1-4-4.4-5.9-6.9c1.9,0.1,3.8,0.1,5.8,0.1v0c2,0,4,0,6-0.1C53.5,64.4,51.5,66.7,49.6,68.7z M35.1,57.2
		c-3.2-0.3-6.3-0.8-9.1-1.4c0.9-2.7,2-5.6,3.2-8.4c0.9,1.7,1.8,3.3,2.8,4.9C33,53.9,34,55.6,35.1,57.2z M32,32.8
		c-1,1.6-1.9,3.3-2.8,4.9c-1.2-2.8-2.3-5.6-3.1-8.2c2.8-0.6,5.8-1.1,8.9-1.5C34,29.5,33,31.1,32,32.8z M49.5,16.4
		c1.9,2,3.9,4.3,5.8,6.8C53.4,23,51.4,23,49.5,23c-2,0-3.9,0-5.8,0.1C45.5,20.7,47.5,18.4,49.5,16.4z M66.9,32.7c-1-1.6-2-3.2-3-4.8
		c3.2,0.4,6.2,0.9,9,1.5c-0.9,2.6-1.9,5.4-3.2,8.2C68.8,36.1,67.9,34.4,66.9,32.7z M24.3,22.6c-0.9-4-1.1-8.1-0.5-12.2
		c0.5-2.9,1.5-4.8,3-5.7c1.5-0.9,4-0.7,7,0.4c4.2,1.7,8,4.1,11.3,7.1c0.5,0.4,1,0.9,1.5,1.3c-2.9,3-5.7,6.4-8.4,10
		c-4.6,0.4-9.1,1.1-13.2,2C24.7,24.5,24.5,23.5,24.3,22.6z M19.5,54c-4.2-1.3-8.1-3.3-11.5-5.9c-2.4-2-3.7-4-3.7-5.7
		c0-4.2,7.2-8.5,14.3-10.9c1.1-0.4,2.2-0.7,3.4-1c1.2,3.9,2.9,8,4.8,12.1c-2,4.2-3.6,8.3-4.9,12.2C21.1,54.5,20.2,54.3,19.5,54z
		 M29.4,80.9c-0.9,0-1.8-0.2-2.6-0.6C23,78.2,22.7,70,24.1,62.8c0.2-1,0.4-2,0.7-3.1c4,0.9,8.5,1.5,13.3,1.9
		c2.7,3.7,5.6,7.1,8.5,10.1c-0.6,0.6-1.3,1.1-1.9,1.7C38.4,78.7,32.9,80.9,29.4,80.9z M74.8,61.8c2.2,10.5,0.1,17-2.8,18.5
		c-3.8,2.1-11.3-1.7-17-6.5c-0.8-0.7-1.7-1.4-2.5-2.2c2.8-2.9,5.5-6.3,8.3-10.2c4.8-0.4,9.3-1.1,13.4-2
		C74.5,60.3,74.7,61.1,74.8,61.8z M78.9,54c-0.6,0.2-1.1,0.3-1.7,0.5c-1.2-3.8-2.9-7.9-5-12.1c2-4.1,3.6-8.2,4.8-11.9
		c1,0.3,2,0.6,2.9,0.9c4,1.2,7.8,3.1,11.2,5.6c2.3,1.9,3.6,3.8,3.6,5.4C94.7,45.6,89.7,50.5,78.9,54z"/>
</g>
</svg>
